<svg width="20" height="20" viewBox="0 0 20 20" fill="none" xmlns="http://www.w3.org/2000/svg">
<path d="M3.85691 8.57143C3.30463 8.57143 2.85691 9.01914 2.85691 9.57143V14.2381C2.85691 14.7904 3.30463 15.2381 3.85691 15.2381H4.71405C5.26634 15.2381 5.71405 14.7904 5.71405 14.2381V9.57143C5.71405 9.01914 5.26634 8.57143 4.71405 8.57143H3.85691ZM9.5712 8.57143C9.01891 8.57143 8.5712 9.01914 8.5712 9.57143V14.2381C8.5712 14.7904 9.01891 15.2381 9.5712 15.2381H10.4283C10.9806 15.2381 11.4283 14.7904 11.4283 14.2381V9.57143C11.4283 9.01914 10.9806 8.57143 10.4283 8.57143H9.5712ZM0.952148 19C0.952148 19.5523 1.39986 20 1.95215 20H18.0474C18.5997 20 19.0474 19.5523 19.0474 19V18.1429C19.0474 17.5906 18.5997 17.1429 18.0474 17.1429H1.95215C1.39986 17.1429 0.952148 17.5906 0.952148 18.1429V19ZM15.2855 8.57143C14.7332 8.57143 14.2855 9.01914 14.2855 9.57143V14.2381C14.2855 14.7904 14.7332 15.2381 15.2855 15.2381H16.1426C16.6949 15.2381 17.1426 14.7904 17.1426 14.2381V9.57143C17.1426 9.01914 16.6949 8.57143 16.1426 8.57143H15.2855ZM10.1395 0.0735391C10.052 0.0275064 9.94751 0.0275062 9.86004 0.0735389L1.11242 4.67755C1.01386 4.72943 0.952148 4.83164 0.952148 4.94302V6.36667C0.952148 6.53235 1.08646 6.66667 1.25215 6.66667H18.7474C18.9131 6.66667 19.0474 6.53235 19.0474 6.36667V4.94302C19.0474 4.83164 18.9857 4.72943 18.8871 4.67755L10.1395 0.0735391Z" fill="white"/>
</svg>
