<svg width="0" height="0" class="hidden">
  <symbol fill="none" xmlns="http://www.w3.org/2000/svg" viewBox="0 0 20 20" id="home">
    <path d="M3.857 8.571a1 1 0 00-1 1v4.667a1 1 0 001 1h.857a1 1 0 001-1V9.571a1 1 0 00-1-1h-.857zm5.714 0a1 1 0 00-1 1v4.667a1 1 0 001 1h.857a1 1 0 001-1V9.571a1 1 0 00-1-1h-.857zM.952 19a1 1 0 001 1h16.095a1 1 0 001-1v-.857a1 1 0 00-1-1H1.952a1 1 0 00-1 1V19zM15.286 8.571a1 1 0 00-1 1v4.667a1 1 0 001 1h.857a1 1 0 001-1V9.571a1 1 0 00-1-1h-.857zM10.14.074a.3.3 0 00-.28 0L1.112 4.678a.3.3 0 00-.16.265v1.424a.3.3 0 00.3.3h17.495a.3.3 0 00.3-.3V4.943a.3.3 0 00-.16-.265L10.14.074z" fill="#fff"></path>
  </symbol>
</svg>